<svg width="8" height="8" viewBox="0 0 8 8" fill="none" xmlns="http://www.w3.org/2000/svg">
<g clip-path="url(#clip0_1004_1673)">
<path d="M6.94667 1.53679C6.77641 1.36646 6.57427 1.23134 6.35178 1.13915C6.1293 1.04696 5.89083 0.999512 5.65 0.999512C5.40917 0.999512 5.1707 1.04696 4.94821 1.13915C4.72573 1.23134 4.52358 1.36646 4.35333 1.53679L4 1.89012L3.64667 1.53679C3.30277 1.19289 2.83634 0.99969 2.35 0.99969C1.86365 0.99969 1.39723 1.19289 1.05333 1.53679C0.709435 1.88068 0.516235 2.34711 0.516235 2.83345C0.516235 3.3198 0.709435 3.78622 1.05333 4.13012L4 7.07679L6.94667 4.13012C7.117 3.95987 7.25212 3.75772 7.3443 3.53524C7.43649 3.31275 7.48394 3.07428 7.48394 2.83345C7.48394 2.59262 7.43649 2.35415 7.3443 2.13167C7.25212 1.90918 7.117 1.70704 6.94667 1.53679Z" stroke="#484848" stroke-width="0.7" stroke-linecap="round" stroke-linejoin="round"/>
</g>
<defs>
<clipPath id="clip0_1004_1673">
<rect width="8" height="8" fill="white"/>
</clipPath>
</defs>
</svg>
