<svg width="7" height="7" viewBox="0 0 7 7" fill="none" xmlns="http://www.w3.org/2000/svg">
<g clip-path="url(#clip0_1091_1774)">
<path d="M6.07829 1.34463C5.92932 1.19559 5.75244 1.07736 5.55776 0.996694C5.36309 0.91603 5.15443 0.874512 4.9437 0.874512C4.73298 0.874512 4.52432 0.91603 4.32964 0.996694C4.13497 1.07736 3.95809 1.19559 3.80912 1.34463L3.49995 1.65379L3.19079 1.34463C2.88988 1.04372 2.48175 0.874668 2.0562 0.874668C1.63065 0.874668 1.22253 1.04372 0.92162 1.34463C0.62071 1.64554 0.45166 2.05366 0.45166 2.47921C0.45166 2.90476 0.62071 3.31288 0.92162 3.61379L3.49995 6.19213L6.07829 3.61379C6.22733 3.46482 6.34556 3.28795 6.42622 3.09327C6.50688 2.8986 6.5484 2.68994 6.5484 2.47921C6.5484 2.26849 6.50688 2.05982 6.42622 1.86515C6.34556 1.67047 6.22733 1.4936 6.07829 1.34463Z" stroke="#777777" stroke-width="0.5" stroke-linecap="round" stroke-linejoin="round"/>
</g>
<defs>
<clipPath id="clip0_1091_1774">
<rect width="7" height="7" fill="white"/>
</clipPath>
</defs>
</svg>
