<svg width="8" height="8" viewBox="0 0 8 8" fill="none" xmlns="http://www.w3.org/2000/svg">
<g clip-path="url(#clip0_1091_1777)">
<path d="M7 3.83334C7.00115 4.2733 6.89836 4.7073 6.7 5.10001C6.46481 5.57059 6.10325 5.9664 5.65582 6.2431C5.20838 6.51981 4.69275 6.66647 4.16667 6.66668C3.72671 6.66782 3.29271 6.56503 2.9 6.36668L1 7.00001L1.63333 5.10001C1.43498 4.7073 1.33219 4.2733 1.33333 3.83334C1.33354 3.30726 1.4802 2.79163 1.75691 2.34419C2.03361 1.89676 2.42942 1.5352 2.9 1.30001C3.29271 1.10165 3.72671 0.998862 4.16667 1.00001H4.33333C5.02812 1.03834 5.68435 1.3316 6.17638 1.82363C6.66841 2.31566 6.96167 2.97189 7 3.66668V3.83334Z" stroke="#777777" stroke-width="0.5" stroke-linecap="round" stroke-linejoin="round"/>
</g>
<defs>
<clipPath id="clip0_1091_1777">
<rect width="8" height="8" fill="white"/>
</clipPath>
</defs>
</svg>
