<svg width="15" height="15" viewBox="0 0 15 15" fill="none" xmlns="http://www.w3.org/2000/svg">
<circle cx="7.5" cy="7.5" r="7" stroke="#484848"/>
<path d="M11.8334 12.375V11.2917C11.8334 10.717 11.6051 10.1659 11.1988 9.7596C10.7925 9.35327 10.2414 9.125 9.66675 9.125H5.33341C4.75878 9.125 4.20768 9.35327 3.80135 9.7596C3.39502 10.1659 3.16675 10.717 3.16675 11.2917V12.375M9.66675 4.79167C9.66675 5.98828 8.6967 6.95833 7.50008 6.95833C6.30346 6.95833 5.33341 5.98828 5.33341 4.79167C5.33341 3.59505 6.30346 2.625 7.50008 2.625C8.6967 2.625 9.66675 3.59505 9.66675 4.79167Z" stroke="#484848" stroke-linecap="round" stroke-linejoin="round"/>
</svg>
